<svg version="1.1" id="Layer_1" xmlns="http://www.w3.org/2000/svg" xmlns:xlink="http://www.w3.org/1999/xlink" x="0px" y="0px"
	 width="100%" viewBox="0 0 496 496" enable-background="new 0 0 496 496" xml:space="preserve">
<path fill="#000000" opacity="1.000000" stroke="none" 
	d="
M57.000000,1.000000 
	C203.633682,1.000000 350.267365,1.000000 496.901062,1.000001 
	C496.934021,1.133657 496.995911,1.267310 496.995911,1.400965 
	C497.000000,166.530487 497.000000,331.660034 497.000000,496.894775 
	C331.774048,496.894775 166.548004,496.894775 1.000000,496.894775 
	C1.000000,340.309418 1.000000,183.618591 1.280588,26.617373 
	C9.886550,27.816107 17.783091,31.591858 26.769192,29.164326 
	C35.883369,26.702192 45.357101,25.600164 54.549629,23.388241 
	C60.257706,22.014751 60.774834,20.349024 57.795403,15.573684 
	C55.655289,12.143570 56.204433,8.879972 57.690754,5.614545 
	C58.528072,3.774966 59.195835,2.253792 57.000000,1.000000 
M268.459900,92.408882 
	C261.321411,92.534523 254.208420,92.348953 247.059860,93.302246 
	C232.936600,95.185669 220.065216,100.318420 208.373825,108.088722 
	C195.443878,116.682213 183.210709,126.320061 170.337723,135.004501 
	C157.422409,143.717499 144.762405,152.763535 132.275009,162.063797 
	C125.633072,167.010529 119.270149,172.151367 114.898148,179.483047 
	C104.892242,196.262558 105.740974,216.608002 120.684761,229.852127 
	C127.072372,235.513214 138.503738,236.670517 145.543152,231.866928 
	C163.627304,219.526520 180.924271,206.094467 198.764618,193.408859 
	C211.053192,184.670898 223.115341,175.661896 235.770050,167.405212 
	C251.587906,157.084717 268.579193,154.635284 286.111664,159.837296 
	C301.295013,164.342316 313.794067,173.562515 322.852600,187.108566 
	C329.577087,197.164368 333.945038,207.996307 334.258942,220.012909 
	C334.698334,236.830444 334.416962,253.668228 334.352081,270.497009 
	C334.310486,281.282440 330.950409,291.418640 327.177063,301.276093 
	C323.003296,312.179596 315.522064,321.049225 306.602539,328.430328 
	C292.537048,340.069794 276.665527,347.463409 257.879456,346.209961 
	C243.032318,345.219330 229.914124,338.535431 216.556137,332.800781 
	C211.979034,330.835815 207.574432,330.593262 203.196991,332.990692 
	C196.322449,336.755737 191.633026,342.804504 187.252930,349.021576 
	C180.704300,358.316650 176.589722,368.521362 177.470245,380.160004 
	C177.747955,383.830750 178.789124,386.664703 183.218643,388.290436 
	C195.656586,392.855438 207.901703,397.942352 220.428192,402.311401 
	C231.097549,406.032715 241.868240,409.251740 253.216003,409.550110 
	C263.981506,409.833130 274.614960,409.404419 285.320007,406.869263 
	C298.345886,403.784546 310.839935,399.438995 322.333252,392.968628 
	C335.345886,385.642883 347.296600,376.596558 357.454437,365.387482 
	C365.624512,356.371948 372.756500,346.604218 378.300598,335.845917 
	C383.434723,325.883118 387.312500,315.420685 390.593292,304.563782 
	C394.874420,290.396637 396.318726,275.868805 397.178528,261.526825 
	C398.131866,245.624542 399.179260,229.470428 395.952332,213.397644 
	C394.608398,206.703659 394.598694,199.527924 393.101837,192.772980 
	C387.697113,168.382843 374.192169,148.290405 357.168732,130.824020 
	C345.678070,119.034386 332.074554,109.685692 316.481018,103.138145 
	C301.282349,96.756416 285.940186,92.419426 268.459900,92.408882 
M105.295143,306.038239 
	C103.628548,323.283478 117.325493,338.380219 134.457809,338.749847 
	C139.120239,338.850433 143.196106,337.030060 147.632935,336.524384 
	C156.416946,335.523224 165.077560,333.569122 172.301468,328.151703 
	C183.554794,319.712524 195.212936,311.796448 205.818146,302.502136 
	C212.736053,296.439362 221.145111,291.986176 224.973679,282.729279 
	C226.437927,279.188965 227.292068,275.482269 228.863617,271.992706 
	C234.654709,259.133972 234.878845,246.491898 226.052094,234.828049 
	C217.789856,223.910141 206.148041,220.660797 192.903503,225.907547 
	C184.690338,229.161133 177.927094,234.448273 170.988586,239.463943 
	C155.014557,251.011215 139.213196,262.812317 123.645836,274.901917 
	C113.787125,282.558197 107.133171,292.514160 105.295143,306.038239 
z"/>
</svg>