<?xml version="1.0" standalone="no"?>
<!DOCTYPE svg PUBLIC "-//W3C//DTD SVG 20010904//EN"
 "http://www.w3.org/TR/2001/REC-SVG-20010904/DTD/svg10.dtd">
<svg version="1.0" xmlns="http://www.w3.org/2000/svg"
 width="500.000000pt" height="500.000000pt" viewBox="0 0 500.000000 500.000000"
 preserveAspectRatio="xMidYMid meet">
<metadata>
Created by potrace 1.16, written by Peter Selinger 2001-2019
</metadata>
<g transform="translate(0.000000,500.000000) scale(0.100000,-0.100000)"
fill="#000000" stroke="none">
<path d="M2480 4085 c-8 -2 -48 -9 -87 -15 -40 -6 -75 -16 -79 -21 -3 -5 -15
-9 -27 -10 -12 0 -42 -11 -67 -24 -190 -99 -201 -105 -207 -121 -3 -8 -10 -14
-16 -14 -5 0 -34 -18 -63 -40 -29 -22 -56 -40 -59 -40 -3 0 -13 -7 -22 -16
-10 -8 -56 -42 -103 -74 -130 -90 -242 -169 -328 -233 -42 -31 -99 -72 -127
-91 -72 -47 -144 -129 -182 -206 -35 -71 -46 -133 -41 -225 7 -101 38 -172
110 -242 l48 -47 87 -4 88 -4 100 67 c55 38 121 85 146 106 26 22 50 39 54 39
4 0 38 24 74 53 36 30 77 60 91 68 14 8 31 22 38 32 7 9 19 17 25 17 7 0 42
24 79 53 158 123 369 265 422 283 22 8 44 18 50 23 19 14 127 31 202 31 74 0
170 -16 189 -30 6 -5 30 -16 55 -26 69 -27 183 -116 245 -191 30 -37 55 -71
55 -76 0 -5 9 -22 20 -37 11 -16 33 -64 48 -107 l27 -78 0 -335 c0 -289 -2
-343 -17 -390 -10 -30 -24 -78 -32 -106 -8 -28 -25 -69 -38 -90 -13 -22 -30
-52 -38 -69 -21 -43 -151 -175 -200 -205 -22 -14 -60 -37 -83 -52 -23 -15 -48
-28 -55 -28 -7 0 -32 -9 -55 -20 -68 -33 -173 -45 -280 -30 -51 7 -96 16 -102
20 -5 4 -30 13 -55 20 -39 10 -101 36 -203 86 -36 17 -120 18 -150 2 -72 -41
-160 -150 -216 -268 -48 -103 -56 -272 -13 -287 9 -3 78 -29 152 -58 74 -29
158 -61 185 -70 28 -9 58 -21 68 -26 25 -13 170 -49 247 -61 77 -12 348 -5
376 10 10 5 55 18 99 27 44 10 85 21 90 25 6 4 21 11 35 15 29 8 164 74 232
113 92 53 295 226 333 285 6 8 32 43 58 77 57 73 85 119 131 215 66 135 84
180 91 220 4 22 13 54 20 70 13 29 37 162 57 315 12 95 4 623 -11 670 -6 19
-18 73 -26 120 -9 47 -21 89 -26 95 -5 5 -9 15 -9 23 0 22 -94 214 -139 282
-22 34 -49 69 -60 77 -12 8 -21 20 -21 28 0 18 -216 235 -234 235 -8 0 -22 10
-30 21 -15 23 -30 33 -111 75 -27 14 -61 32 -75 39 -59 33 -160 74 -196 81
-21 3 -43 10 -49 14 -26 20 -126 32 -295 35 -102 2 -192 2 -200 0z"/>
<path d="M1955 2773 c-11 -3 -24 -9 -29 -14 -6 -5 -17 -9 -26 -9 -8 0 -39 -16
-67 -35 -29 -19 -57 -35 -62 -35 -6 0 -15 -9 -21 -20 -6 -11 -15 -20 -21 -20
-6 0 -43 -25 -82 -55 -102 -78 -105 -80 -172 -130 -33 -24 -64 -45 -69 -45 -4
0 -17 -11 -28 -25 -11 -14 -24 -25 -30 -25 -16 0 -163 -127 -213 -183 -59 -68
-98 -167 -97 -252 0 -64 23 -142 52 -179 75 -94 140 -126 257 -126 39 0 75 5
78 10 3 6 19 10 35 10 46 0 151 27 200 52 52 26 139 88 243 171 39 31 75 57
79 57 4 0 19 11 35 26 15 14 64 56 109 94 63 54 88 82 112 132 18 35 32 69 32
75 0 7 10 32 23 55 19 37 22 58 22 158 0 109 -1 117 -29 160 -71 111 -149 161
-251 159 -33 -1 -69 -3 -80 -6z"/>
</g>
</svg>
